<svg width="96" height="96" viewBox="0 0 28 28" fill="none" xmlns="http://www.w3.org/2000/svg"><path clip-rule="evenodd" d="M26.9648 24.2849C26.9484 25.1008 26.4772 25.6733 25.7981 25.804C25.5313 25.9298 25.2338 26 24.92 26H3.08005C1.93127 26 1 25.0587 1 23.8975V9.18008C1 8.01891 1.93127 7.07759 3.08004 7.07759H4.79675C5.01766 7.07759 5.19675 6.8985 5.19675 6.67758L5.19665 3.59183C5.19662 2.46502 6.05341 1.78789 7.13478 2.0601L24.8817 6.52747C25.6294 6.71569 26.2936 7.30816 26.6607 8.02877C26.8752 8.3595 27 8.75506 27 9.18008V23.8975C27 24.0298 26.9879 24.1593 26.9648 24.2849ZM7.60619 7.07759C7.38528 7.07759 7.2062 6.89852 7.20619 6.67761L7.20613 4.68512C7.20612 4.42461 7.45115 4.23361 7.70377 4.2972L17.9665 6.88062C18.0808 6.90938 18.06 7.07759 17.9421 7.07759H7.60619ZM24.42 9.18008C24.6961 9.18008 24.92 9.40394 24.92 9.68008V13.5H21.4999C20.4786 13.5 19.6391 13.893 19.0651 14.5388C18.5074 15.1662 18.25 15.9744 18.25 16.75C18.25 17.5255 18.5074 18.3338 19.065 18.9612C19.6391 19.607 20.4785 20 21.4999 20H24.92V23.3975C24.92 23.6737 24.6961 23.8975 24.42 23.8975H3.58004C3.3039 23.8975 3.08004 23.6737 3.08004 23.3975V9.68008C3.08004 9.40394 3.3039 9.18008 3.58004 9.18008H24.42ZM24.92 18L24.92 15.5H21.4999C21.0213 15.5 20.7359 15.6695 20.5599 15.8675C20.3676 16.0838 20.25 16.4006 20.25 16.75C20.25 17.0995 20.3676 17.4162 20.5599 17.6325C20.7358 17.8305 21.0213 18 21.4999 18H24.92Z" fill="#7294fe" fill-rule="evenodd" style=""></path></svg>