<svg fill="#000000" width="800px" height="800px" viewBox="0 0 24 24" id="Main" xmlns="http://www.w3.org/2000/svg"><title fill="#e06125" style=""></title><path d="M21,11H19.93A8,8,0,0,0,13,4.07V3a1,1,0,0,0-2,0V4.07A8,8,0,0,0,4.07,11H3a1,1,0,0,0,0,2H4.07A8,8,0,0,0,11,19.93V21a1,1,0,0,0,2,0V19.93A8,8,0,0,0,19.93,13H21a1,1,0,0,0,0-2Zm-8,6.91V16a1,1,0,0,0-2,0v1.91A6,6,0,0,1,6.09,13H8a1,1,0,0,0,0-2H6.09A6,6,0,0,1,11,6.09V8a1,1,0,0,0,2,0V6.09A6,6,0,0,1,17.91,11H16a1,1,0,0,0,0,2h1.91A6,6,0,0,1,13,17.91Z" fill="#e06125" style=""></path></svg>