<svg width="96" height="96" viewBox="0 0 32 32" id="svg5" version="1.1" xmlns="http://www.w3.org/2000/svg" xmlns:svg="http://www.w3.org/2000/svg">

<defs id="defs2" fill="#3f62f3" style=""></defs>

<g id="layer1" transform="translate(-12,-244)" fill="#3f62f3" style="">

<path d="m 37,250.00586 c -2.960901,0 -5.434401,2.17093 -5.914062,5 H 16.628906 c -1.625268,0 -2.862846,1.51426 -2.58789,3.10156 l 2.27539,13.13672 c 0.278528,1.60786 1.699779,2.76172 3.3125,2.76172 h 16.767578 c 1.61436,0 3.012976,-1.16097 3.310547,-2.74805 a 1.0001,1.0001 0 0 0 0.002,-0.0137 l 1.998,-11.52731 C 42.515917,258.69406 43,257.40433 43,256.00586 c 0,-3.30186 -2.698143,-6 -6,-6 z m 0,2 c 2.220979,0 4,1.77902 4,4 0,2.22098 -1.779021,4 -4,4 -2.220979,0 -4,-1.77902 -4,-4 0,-2.22098 1.779021,-4 4,-4 z m -20.371094,5 h 14.457032 c 0.479661,2.82907 2.953161,5 5.914062,5 0.839976,0 1.639835,-0.17549 2.367188,-0.49024 l -1.625,9.375 c -0.122524,0.65348 -0.680468,1.11524 -1.345704,1.11524 H 19.628906 c -0.666872,0 -1.233178,-0.46327 -1.34375,-1.10156 l -2.27539,-13.13672 c -0.07374,-0.42572 0.201415,-0.76172 0.61914,-0.76172 z" id="path43283" style="" fill="#3f62f3"></path>

<path d="m 23.304687,246.07227 a 1,1 0 0 0 -0.55664,0.52734 l -4,9 a 1,1 0 0 0 0.507812,1.32031 1,1 0 0 0 1.320313,-0.50781 l 4,-9 a 1,1 0 0 0 -0.507813,-1.32031 1,1 0 0 0 -0.763672,-0.0195 z" id="path43285" style="" fill="#3f62f3"></path>

<path d="m 32.466797,246.01172 c -0.174002,-0.0184 -0.349776,0.009 -0.509766,0.0801 -0.50494,0.22425 -0.73234,0.81549 -0.507812,1.32031 l 1.759765,3.95898 c 0.516981,-0.42442 1.103473,-0.76593 1.742188,-1 l -1.675781,-3.77148 c -0.107652,-0.24238 -0.307179,-0.43207 -0.554688,-0.52734 -0.08163,-0.0312 -0.166989,-0.0515 -0.253906,-0.0606 z" id="path43287" style="" fill="#3f62f3"></path>

<path d="m 28,259.00586 a 1,1 0 0 0 -1,1 v 8 a 1,1 0 0 0 1,1 1,1 0 0 0 1,-1 v -8 a 1,1 0 0 0 -1,-1 z" id="path43289" style="" fill="#3f62f3"></path>

<path d="m 24,259.00586 a 1,1 0 0 0 -1,1 v 8 a 1,1 0 0 0 1,1 1,1 0 0 0 1,-1 v -8 a 1,1 0 0 0 -1,-1 z" id="path43291" style="" fill="#3f62f3"></path>

<path d="m 32,262.00586 a 1,1 0 0 0 -1,1 v 5 a 1,1 0 0 0 1,1 1,1 0 0 0 1,-1 v -5 a 1,1 0 0 0 -1,-1 z" id="path43293" style="" fill="#3f62f3"></path>

<path d="m 37,253.00586 a 1,1 0 0 0 -1,1 v 1 h -1 a 1,1 0 0 0 -1,1 1,1 0 0 0 1,1 h 1 v 1 a 1,1 0 0 0 1,1 1,1 0 0 0 1,-1 v -1 h 1 a 1,1 0 0 0 1,-1 1,1 0 0 0 -1,-1 h -1 v -1 a 1,1 0 0 0 -1,-1 z" id="path43297" style="" fill="#3f62f3"></path>

</g>

</svg>
